<?xml version="1.0" encoding="utf-8"?>
<!-- Generator: Adobe Illustrator 20.1.0, SVG Export Plug-In . SVG Version: 6.00 Build 0)  -->
<svg version="1.1" id="Layer_1" xmlns="http://www.w3.org/2000/svg" xmlns:xlink="http://www.w3.org/1999/xlink" x="0px" y="0px"
	 viewBox="0 0 440.2 118.8" style="enable-background:new 0 0 440.2 118.8;" xml:space="preserve">
<style type="text/css">
	.st0{fill:#72737B;}
	.st1{fill:#F2A31F;}
</style>
<path class="st0" d="M254.3,51.8c0,4.8-2.4,7.4-6.7,7.4c-4.2,0-6.7-2.6-6.7-7.4v-10h2.5v9.7c0,3.3,1,5.5,4.2,5.5s4.2-2.3,4.2-5.5
	v-9.7h2.5V51.8z"/>
<path class="st0" d="M259.9,41.8h3.4l7.6,13.8l0,0V41.8h2.5v17.1h-3.2l-7.8-14.1l0,0v14.1h-2.5V41.8z"/>
<path class="st0" d="M279,41.8h2.5v17.1H279V41.8z"/>
<path class="st0" d="M294.6,58.9h-3.1L285,41.8h2.8l5.3,14.9l0,0l5.4-14.9h2.6L294.6,58.9z"/>
<path class="st0" d="M304.9,41.8h9.6V44h-7.2v5h6.5v2.2h-6.5v5.6h7.2V59h-9.6V41.8z"/>
<path class="st0" d="M319.5,41.8h4.2c3.4,0,6.7,0.5,6.7,4.6c0,2.1-1.6,3.6-3.6,3.9l0,0c0.8,0.3,1.1,0.7,1.7,1.7l3.3,6.8H329
	l-2.6-5.9c-0.8-1.7-1.6-1.7-2.9-1.7H322v7.6h-2.5V41.8z M322,49.2h2.1c2.3,0,3.7-1,3.7-2.7c0-1.5-1.2-2.5-3.5-2.5H322V49.2z"/>
<path class="st0" d="M343.8,44.4c-1.3-0.5-1.9-0.7-3.2-0.7c-1.4,0-3,0.5-3,2.3c0,3.3,7.4,2.5,7.4,8.2c0,3.6-2.8,5.1-6.3,5.1
	c-1.2,0-2.4-0.3-3.5-0.7l0.2-2.3c0.8,0.3,2.3,0.8,3.6,0.8c1.4,0,3.4-0.8,3.4-2.8c0-3.8-7.4-2.8-7.4-8.1c0-3,2.4-4.7,5.5-4.7
	c1.1,0,2.5,0.2,3.7,0.6L343.8,44.4z"/>
<path class="st0" d="M349.5,41.8h2.5v17.1h-2.5V41.8z"/>
<path class="st0" d="M361,44h-5.4v-2.2h13.2V44h-5.3v14.9H361V44z"/>
<path class="st0" d="M377.3,51.7l-6.7-9.9h2.9l5.1,7.7l5-7.7h2.9l-6.7,9.9v7.2h-2.5L377.3,51.7L377.3,51.7z"/>
<g>
	<g>
		<path class="st1" d="M248.4,71.2c5.2,0,8.3,3.8,8.3,8.8c0,5.2-3,8.8-8.3,8.8s-8.3-3.6-8.3-8.8C240.1,75,243.1,71.2,248.4,71.2z
			 M248.4,86.8c4,0,5.7-3.3,5.7-6.7c0-3.5-1.9-6.7-5.7-6.7s-5.7,3.2-5.7,6.7C242.7,83.5,244.4,86.8,248.4,86.8z"/>
		<path class="st1" d="M261.2,71.5h9.1v2.2h-6.7v5h6.4v2.2h-6.4v7.8h-2.5V71.5H261.2z"/>
	</g>
	<path class="st1" d="M282.9,71.5h2.5v7.2h8.2v-7.2h2.5v17.1h-2.5v-7.8h-8.2v7.8h-2.5V71.5z"/>
	<path class="st1" d="M315.2,81.5c0,4.8-2.4,7.4-6.7,7.4c-4.2,0-6.7-2.6-6.7-7.4v-10h2.5v9.7c0,3.3,1,5.5,4.2,5.5s4.2-2.3,4.2-5.5
		v-9.7h2.5V81.5z"/>
	<path class="st1" d="M320.9,71.5h4.1l5.4,14.2l5.3-14.2h4.1v17.1h-2.5V73.8h-0.1l-5.7,14.8h-2.4l-5.7-14.8l0,0v14.8h-2.5
		L320.9,71.5L320.9,71.5z"/>
	<path class="st1" d="M350.8,71.5h2.6l7.3,17.1H358l-1.8-4.3h-8.4l-1.7,4.3h-2.6L350.8,71.5z M352,73.8l-3.4,8.5h6.9L352,73.8z"/>
	<path class="st1" d="M364.4,71.5h3.4l7.6,13.8l0,0V71.5h2.5v17.1h-3.2l-7.8-14.1l0,0v14.1h-2.5V71.5z"/>
	<path class="st1" d="M383.4,71.5h2.5v17.1h-2.5V71.5z"/>
	<path class="st1" d="M399.3,74.1c-1.3-0.5-1.9-0.7-3.2-0.7c-1.4,0-3,0.5-3,2.3c0,3.3,7.4,2.5,7.4,8.2c0,3.7-2.8,5.1-6.3,5.1
		c-1.2,0-2.4-0.3-3.5-0.7l0.2-2.3c0.8,0.3,2.3,0.8,3.6,0.8c1.4,0,3.4-0.8,3.4-2.8c0-3.8-7.4-2.8-7.4-8.1c0-3,2.4-4.7,5.5-4.7
		c1.1,0,2.5,0.2,3.7,0.6L399.3,74.1z"/>
	<path class="st1" d="M408.5,73.7h-5.4v-2.2h13.2v2.2H411v14.9h-2.5L408.5,73.7L408.5,73.7z"/>
	<path class="st1" d="M420,71.5h2.5v17.1H420V71.5z"/>
	<path class="st1" d="M440,74.3c-1.1-0.6-2.3-1-3.6-1c-4,0-6.6,2.8-6.6,6.7c0,4,2.9,6.7,6.5,6.7c1.2,0,2.9-0.3,3.7-0.8l0.1,2.4
		c-1.3,0.5-2.9,0.6-3.9,0.6c-5.4,0-9.1-3.5-9.1-8.9c0-5.3,3.8-8.8,9.1-8.8c1.3,0,2.6,0.2,3.9,0.7L440,74.3z"/>
	<path class="st1" d="M251.2,104c-1.3-0.5-1.9-0.7-3.2-0.7c-1.4,0-3,0.5-3,2.3c0,3.3,7.4,2.5,7.4,8.2c0,3.6-2.8,5.1-6.3,5.1
		c-1.2,0-2.4-0.3-3.5-0.7l0.2-2.3c0.8,0.3,2.3,0.8,3.6,0.8c1.4,0,3.4-0.8,3.4-2.8c0-3.8-7.4-2.8-7.4-8.1c0-3,2.4-4.7,5.5-4.7
		c1.1,0,2.5,0.2,3.7,0.6L251.2,104z"/>
	<path class="st1" d="M260.4,103.5H255v-2.2h13.2v2.2h-5.3v14.9h-2.5L260.4,103.5L260.4,103.5z"/>
	<path class="st1" d="M285.3,111.4c0,4.8-2.4,7.4-6.7,7.4c-4.2,0-6.7-2.6-6.7-7.4v-10h2.5v9.7c0,3.3,1,5.5,4.2,5.5s4.2-2.3,4.2-5.5
		v-9.7h2.5V111.4z"/>
	<path class="st1" d="M290.7,101.4h5.1c5.1,0,9.2,3.1,9.2,8.4c0,5.7-3.5,8.7-9.2,8.7h-5.1V101.4z M293.2,116.3h2.6
		c4.2,0,6.6-2,6.6-6.4c0-4-2.7-6.3-6.3-6.3h-2.9L293.2,116.3L293.2,116.3z"/>
	<path class="st1" d="M309.9,101.4h2.5v17.1h-2.5V101.4z"/>
	<path class="st1" d="M318.1,101.4h9.6v2.2h-7.2v5h6.5v2.2h-6.5v5.6h7.2v2.2h-9.6V101.4z"/>
	<path class="st1" d="M340.8,104c-1.3-0.5-2-0.7-3.2-0.7c-1.4,0-3,0.5-3,2.3c0,3.3,7.4,2.5,7.4,8.2c0,3.6-2.8,5.1-6.3,5.1
		c-1.2,0-2.4-0.3-3.5-0.7l0.3-2.3c0.8,0.3,2.3,0.8,3.6,0.8c1.4,0,3.4-0.8,3.4-2.8c0-3.8-7.4-2.8-7.4-8.1c0-3,2.4-4.7,5.5-4.7
		c1.1,0,2.5,0.2,3.7,0.6L340.8,104z"/>
</g>
<g>
	<g>
		<rect x="215.7" y="41.8" class="st1" width="2.4" height="76.7"/>
	</g>
</g>
<g>
	<polygon class="st1" points="143.1,45 143.1,41.6 106.2,41.6 106.2,45 113.2,45 100.1,84.9 87.5,45 94.5,45 94.5,41.6 45.3,41.6 
		45.3,45 70.7,45 92.5,110.2 95.2,110.2 117.1,45 	"/>
	<path class="st1" d="M95.1,29.6c3.8,0,7.3-1.4,9.9-3.8c3-2.7,4.9-6.6,4.9-11C110,6.6,103.3,0,95.1,0c-4.4,0-8.3,1.9-11,4.9
		c-2.4,2.6-3.8,6.1-3.8,9.9C80.3,23,87,29.6,95.1,29.6z"/>
</g>
<g>
	<path class="st0" d="M61.1,87.5c0,20.2-11.2,31-30.6,31s-30.6-10.8-30.6-31V41.7h11.3v44.5c0,13.8,4.7,23.3,19.3,23.3
		s19.3-9.5,19.3-23.3V45h11.3L61.1,87.5z"/>
</g>
<g>
	<path class="st0" d="M127,45h11.5v30.9h38.7V41.7h11.6v76.9h-11.6V85.1h-38.7v33.5h-11.6L127,45z"/>
</g>
</svg>
