<?xml version="1.0" encoding="utf-8"?>
<!-- Generator: Adobe Illustrator 20.0.0, SVG Export Plug-In . SVG Version: 6.00 Build 0)  -->
<svg version="1.1" id="Layer_1" xmlns="http://www.w3.org/2000/svg" xmlns:xlink="http://www.w3.org/1999/xlink" x="0px" y="0px"
	 viewBox="0 0 411.1 118.7" style="enable-background:new 0 0 411.1 118.7;" xml:space="preserve">
<style type="text/css">
	.st0{fill:#707173;}
	.st1{fill:#F2A31F;}
</style>
<g>
	<path class="st0" d="M253.8,51.9c0,4.7-2.4,7.2-6.5,7.2c-4.2,0-6.5-2.5-6.5-7.2v-9.7h2.4v9.4c0,3.2,1,5.4,4.1,5.4
		c3.1,0,4.1-2.2,4.1-5.4v-9.4h2.4V51.9z M259.3,58.7h2.4V45.1h0l7.6,13.7h3.1V42.1h-2.4v13.4h0l-7.4-13.4h-3.3V58.7z M278,58.7h2.4
		V42.1H278V58.7z M299.7,42.1h-2.5l-5.3,14.5h-0.1l-5.2-14.5h-2.7l6.3,16.6h3L299.7,42.1z M303.3,58.7h9.4v-2.1h-7v-5.5h6.4v-2.1
		h-6.4v-4.9h7v-2.1h-9.4V58.7z M317.7,58.7h2.4v-7.4h1.4c1.3,0,2.1,0,2.8,1.6l2.6,5.8h2.8l-3.2-6.6c-0.5-1-0.9-1.4-1.6-1.7v0
		c2-0.3,3.5-1.8,3.5-3.8c0-4-3.2-4.5-6.5-4.5h-4.1V58.7z M320.1,44.2h2.3c2.2,0,3.4,1,3.4,2.5c0,1.6-1.4,2.6-3.6,2.6h-2.1V44.2z
		 M341.8,42.4c-1.2-0.4-2.5-0.6-3.6-0.6c-3,0-5.4,1.6-5.4,4.5c0,5.2,7.2,4.1,7.2,7.9c0,1.9-1.9,2.7-3.3,2.7c-1.2,0-2.7-0.5-3.5-0.8
		l-0.2,2.2c1.1,0.4,2.3,0.7,3.5,0.7c3.4,0,6.2-1.4,6.2-4.9c0-5.5-7.2-4.7-7.2-7.9c0-1.7,1.6-2.2,2.9-2.2c1.3,0,1.9,0.2,3.2,0.7
		L341.8,42.4z M347,58.7h2.4V42.1H347V58.7z M358.3,58.7h2.4V44.2h5.2v-2.1h-12.9v2.1h5.2V58.7z M369.7,58.7h9.4v-2.1h-7v-5.5h6.4
		v-2.1h-6.4v-4.9h7v-2.1h-9.4V58.7z M384.2,58.7h2.4V42.1h-2.4V58.7z M395.5,58.7h2.4V44.2h5.2v-2.1h-12.9v2.1h5.2V58.7z"/>
	<g>
		<polygon class="st1" points="248.1,88.6 245,88.6 238.7,72 241.4,72 246.6,86.5 246.6,86.5 252,72 254.5,72 		"/>
		<path class="st1" d="M265.2,71.7c5.1,0,8.1,3.7,8.1,8.6c0,5-3,8.6-8.1,8.6c-5.1,0-8.1-3.5-8.1-8.6
			C257.1,75.4,260.1,71.7,265.2,71.7 M265.2,86.8c3.9,0,5.6-3.2,5.6-6.5c0-3.4-1.8-6.5-5.6-6.5c-3.7,0-5.6,3.1-5.6,6.5
			C259.7,83.6,261.4,86.8,265.2,86.8"/>
		<path class="st1" d="M285.2,71.7c5.1,0,8.1,3.7,8.1,8.6c0,5-3,8.6-8.1,8.6c-5.1,0-8.1-3.5-8.1-8.6
			C277.1,75.4,280.1,71.7,285.2,71.7 M285.2,86.8c3.9,0,5.6-3.2,5.6-6.5c0-3.4-1.8-6.5-5.6-6.5c-3.7,0-5.6,3.1-5.6,6.5
			C279.7,83.6,281.3,86.8,285.2,86.8"/>
		<path class="st1" d="M297.8,72h4.1c3.3,0,6.5,0.5,6.5,4.5c0,2-1.5,3.4-3.5,3.8v0c0.7,0.3,1.1,0.6,1.6,1.7l3.2,6.6h-2.8l-2.6-5.8
			c-0.8-1.6-1.5-1.6-2.8-1.6h-1.4v7.4h-2.4V72z M300.2,79.1h2.1c2.3,0,3.6-1,3.6-2.6c0-1.5-1.2-2.5-3.4-2.5h-2.3V79.1z"/>
		<polygon class="st1" points="240.8,101.8 243.2,101.8 243.2,108.8 251.3,108.8 251.3,101.8 253.7,101.8 253.7,118.4 251.3,118.4 
			251.3,110.9 243.2,110.9 243.2,118.4 240.8,118.4 		"/>
		<path class="st1" d="M272.4,111.6c0,4.7-2.4,7.2-6.5,7.2s-6.5-2.5-6.5-7.2v-9.7h2.4v9.4c0,3.2,1,5.4,4.1,5.4
			c3.1,0,4.1-2.2,4.1-5.4v-9.4h2.4V111.6z"/>
		<polygon class="st1" points="278,101.8 282,101.8 287.3,115.6 292.4,101.8 296.4,101.8 296.4,118.4 294,118.4 294,104.1 
			294,104.1 288.4,118.4 286,118.4 280.4,104.1 280.4,104.1 280.4,118.4 278,118.4 		"/>
		<path class="st1" d="M307.3,101.8h2.5l7.1,16.6h-2.6l-1.7-4.2h-8.3l-1.7,4.2h-2.5L307.3,101.8z M308.5,104.1l-3.4,8.2h6.7
			L308.5,104.1z"/>
		<polygon class="st1" points="320.6,101.8 323.8,101.8 331.3,115.2 331.3,115.2 331.3,101.8 333.7,101.8 333.7,118.4 330.6,118.4 
			323,104.8 323,104.8 323,118.4 320.6,118.4 		"/>
		<rect x="339.2" y="101.8" class="st1" width="2.4" height="16.6"/>
		<path class="st1" d="M354.8,104.3c-1.2-0.5-1.9-0.7-3.2-0.7c-1.4,0-2.9,0.5-2.9,2.2c0,3.2,7.2,2.5,7.2,7.9c0,3.5-2.8,4.9-6.2,4.9
			c-1.2,0-2.3-0.3-3.5-0.7l0.2-2.2c0.8,0.3,2.3,0.8,3.5,0.8c1.4,0,3.3-0.8,3.3-2.7c0-3.7-7.2-2.7-7.2-7.9c0-2.9,2.4-4.5,5.4-4.5
			c1.1,0,2.4,0.2,3.6,0.6L354.8,104.3z"/>
		<polygon class="st1" points="363.8,103.9 358.5,103.9 358.5,101.8 371.4,101.8 371.4,103.9 366.2,103.9 366.2,118.4 363.8,118.4 
					"/>
		<rect x="375" y="101.8" class="st1" width="2.4" height="16.6"/>
		<polygon class="st1" points="383.1,101.8 392.5,101.8 392.5,103.9 385.5,103.9 385.5,108.8 391.9,108.8 391.9,110.9 385.5,110.9 
			385.5,116.4 392.5,116.4 392.5,118.4 383.1,118.4 		"/>
		<polygon class="st1" points="397.7,101.8 400.1,101.8 400.1,109.2 407.3,101.8 410.5,101.8 402.6,109.7 411.1,118.4 407.6,118.4 
			400.1,110.3 400.1,118.4 397.7,118.4 		"/>
	</g>
	<rect x="215.6" y="41.8" class="st1" width="2.4" height="76.6"/>
	<path class="st1" d="M117.1,45l-21.9,65.1h-2.7L70.6,45l-25.4,0l0-3.4l49.1,0l0,3.4h-7L100,84.9L113.1,45h-7l0-3.4l36.9,0v3.4
		L117.1,45z M95.1,29.6c3.8,0,7.3-1.4,9.9-3.8c3-2.7,4.9-6.6,4.9-11c0-8.2-6.6-14.8-14.8-14.8c-4.4,0-8.3,1.9-11,4.9
		c-2.4,2.6-3.8,6.1-3.8,9.9C80.3,23,86.9,29.6,95.1,29.6"/>
	<path class="st0" d="M61.1,87.5c0,20.2-11.2,31-30.5,31c-19.4,0-30.6-10.8-30.6-31V41.7h11.3v44.4c0,13.8,4.7,23.3,19.3,23.3
		c14.5,0,19.3-9.5,19.3-23.3l0-41.2h11.3L61.1,87.5z M126.8,118.5h11.6V85.1h38.7v33.4h11.6V41.7h-11.6v34.2h-38.7l0-30.9h-11.5
		L126.8,118.5z"/>
</g>
</svg>
